<svg width="15" height="17" viewBox="0 0 15 17" fill="none" xmlns="http://www.w3.org/2000/svg">
<mask id="mask0" mask-type="alpha" maskUnits="userSpaceOnUse" x="0" y="0" width="15" height="17">
<rect width="15" height="17" fill="#C4C4C4"/>
</mask>
<g mask="url(#mask0)">
<path d="M12.7275 6.83443C12.5483 6.88433 12.4343 7.03404 12.418 7.21702C12.3528 8.26499 11.8315 9.21315 11.0006 9.77872C11.7011 6.15242 9.87649 2.50948 6.47154 1.02902C6.34121 0.979113 6.19458 0.995747 6.08054 1.06228C5.9665 1.14546 5.90134 1.2619 5.90134 1.41161C5.90134 3.02515 4.76092 4.38917 3.57163 5.8031C2.36606 7.23366 1.12789 8.69749 1.01385 10.5273C0.867227 12.6897 1.8936 14.7358 3.66938 15.9002C3.81601 16 3.99522 15.9834 4.14184 15.8836C4.27217 15.7838 4.33734 15.6008 4.27217 15.4344C3.93005 14.3532 3.99522 13.2221 4.43509 12.2406C4.50026 13.0058 4.76092 13.7377 5.21709 14.3698C5.9665 15.4012 7.17208 16 8.42653 16C8.54058 16 8.67091 16 8.78495 15.9834C10.7725 15.7505 12.4831 14.5362 13.3792 12.7064C14.2752 10.8932 14.1938 8.76402 13.1837 7.01741C13.0859 6.8677 12.8904 6.78453 12.7275 6.83443Z" fill="#FF781C"/>
</g>
</svg>
