<svg width="27" height="26" viewBox="0 0 27 26" fill="none" xmlns="http://www.w3.org/2000/svg">
<path d="M11 5.55425C11 5.20946 11.1776 4.88899 11.47 4.70625L18.47 0.331249C18.7943 0.12858 19.2057 0.12858 19.53 0.331249L26.53 4.70625C26.8224 4.88899 27 5.20946 27 5.55425V16C27 16.5523 26.5523 17 26 17H15.2353H12C11.4477 17 11 16.5523 11 16V14.4737V5.55425Z" fill="url(#paint0_linear)" fill-opacity="0.6"/>
<path d="M0 25.2094C0 21.1318 4.98144 19.4704 7.1985 18.9485C7.24599 18.9373 7.31498 18.9332 7.31498 18.8844V18.3813C7.31498 18.1656 7.24465 17.926 7.12742 17.7344C6.75229 17.1833 6.47095 16.6083 6.28338 15.9854C6.23649 15.8417 6.16616 15.6979 6.07238 15.6021C5.58002 15.0271 5.36901 14.2365 5.22834 13.7573C4.99492 12.9702 4.78475 11.8031 5.3844 10.989C5.38971 10.9818 5.39444 10.9741 5.39837 10.966C5.40984 10.9426 5.41481 10.919 5.41158 10.8931C5.33271 10.2589 4.36226 3 11.1835 3C18.5853 3 17.6482 10.1395 17.5646 10.8703C17.5615 10.8968 17.5669 10.9189 17.5786 10.9429C17.5823 10.9504 17.5866 10.9576 17.5915 10.9644C18.192 11.802 17.9817 12.9459 17.7482 13.7333C17.631 14.1885 17.3965 15.0031 16.9042 15.5781C16.8284 15.6749 16.768 15.7716 16.7352 15.881C16.7194 15.9337 16.7079 15.9877 16.6897 16.0396C16.4819 16.6326 16.2095 17.1825 15.8726 17.7104C15.7554 17.9021 15.685 18.1177 15.685 18.3573V18.8604C15.685 18.9092 15.754 18.9136 15.8013 18.9253C18.0183 19.4698 23 21.1077 23 25.1854C23 25.6406 22.6483 26 22.2029 26H0.7737C0.351682 26 0 25.6406 0 25.2094Z" fill="url(#paint1_linear)"/>
<defs>
<linearGradient id="paint0_linear" x1="13.5263" y1="19.9282" x2="5.96516" y2="8.55162" gradientUnits="userSpaceOnUse">
<stop stop-color="#505050"/>
<stop offset="1" stop-color="#333333"/>
</linearGradient>
<linearGradient id="paint1_linear" x1="3.80252e-08" y1="26" x2="-10.8813" y2="5.84965" gradientUnits="userSpaceOnUse">
<stop stop-color="#505050"/>
<stop offset="1" stop-color="#333333"/>
</linearGradient>
</defs>
</svg>
