<svg width="29" height="23" viewBox="0 0 29 23" fill="none" xmlns="http://www.w3.org/2000/svg">
<path d="M0 7.05176C0 6.49947 0.447715 6.05176 1 6.05176H15C15.5523 6.05176 16 6.49947 16 7.05176V21.0518C16 21.604 15.5523 22.0518 15 22.0518H4.23529H1C0.447716 22.0518 0 21.604 0 21.0518V19.0518V7.05176Z" fill="url(#paint0_linear)" fill-opacity="0.6"/>
<path fill-rule="evenodd" clip-rule="evenodd" d="M21.5231 8.67898C21.5231 11.7622 18.9601 14.358 15.6785 14.358C12.397 14.358 9.83398 11.7622 9.83398 8.67898C9.83398 5.59576 12.397 3 15.6785 3C18.9601 3 21.5231 5.59576 21.5231 8.67898ZM20.9428 16.6409C20.6186 16.2861 20.0904 16.2177 19.6597 16.4311C18.4631 17.024 17.1106 17.358 15.6785 17.358C10.7938 17.358 6.83398 13.4723 6.83398 8.67898C6.83398 3.88571 10.7938 0 15.6785 0C20.5632 0 24.5231 3.88571 24.5231 8.67898C24.5231 10.3984 24.0135 12.001 23.1346 13.3493C22.8655 13.7622 22.8776 14.3108 23.21 14.6747L27.6074 19.4883C28.1662 20.0999 28.1233 21.0487 27.5117 21.6075C26.9001 22.1662 25.9513 22.1233 25.3925 21.5117L20.9428 16.6409Z" fill="url(#paint1_linear)"/>
<defs>
<linearGradient id="paint0_linear" x1="2.52632" y1="25.5291" x2="-6.94577" y2="13.5275" gradientUnits="userSpaceOnUse">
<stop stop-color="#505050"/>
<stop offset="1" stop-color="#333333"/>
</linearGradient>
<linearGradient id="paint1_linear" x1="6.83398" y1="22" x2="-3.79156" y2="3.0692" gradientUnits="userSpaceOnUse">
<stop stop-color="#505050"/>
<stop offset="1" stop-color="#333333"/>
</linearGradient>
</defs>
</svg>
