<svg width="29" height="23" viewBox="0 0 29 23" fill="none" xmlns="http://www.w3.org/2000/svg">
<path opacity="0.5" d="M0 7.05176C0 6.49947 0.447715 6.05176 1 6.05176H15C15.5523 6.05176 16 6.49947 16 7.05176V21.0518C16 21.604 15.5523 22.0518 15 22.0518H4.23529H1C0.447716 22.0518 0 21.604 0 21.0518V19.0518V7.05176Z" fill="url(#paint0_linear)"/>
<path fill-rule="evenodd" clip-rule="evenodd" d="M22.5231 8.67898C22.5231 11.7622 19.9601 14.358 16.6785 14.358C13.397 14.358 10.834 11.7622 10.834 8.67898C10.834 5.59576 13.397 3 16.6785 3C19.9601 3 22.5231 5.59576 22.5231 8.67898ZM21.9419 16.6463C21.6182 16.2889 21.088 16.2191 20.6558 16.433C19.4602 17.0247 18.109 17.358 16.6785 17.358C11.7938 17.358 7.83398 13.4723 7.83398 8.67898C7.83398 3.88571 11.7938 0 16.6785 0C21.5632 0 25.5231 3.88571 25.5231 8.67898C25.5231 10.4 25.0126 12.004 24.1321 13.3531C23.8636 13.7646 23.8745 14.3112 24.2043 14.6753L28.53 19.4506C29.0862 20.0646 29.0393 21.0132 28.4253 21.5693C27.8113 22.1255 26.8627 22.0786 26.3066 21.4647L21.9419 16.6463Z" fill="url(#paint1_linear)"/>
<defs>
<linearGradient id="paint0_linear" x1="8" y1="6.05176" x2="8" y2="22.0518" gradientUnits="userSpaceOnUse">
<stop stop-color="#F66200"/>
<stop offset="1" stop-color="#FF971C"/>
</linearGradient>
<linearGradient id="paint1_linear" x1="18.3761" y1="0" x2="18.3761" y2="21.9576" gradientUnits="userSpaceOnUse">
<stop stop-color="#F66200"/>
<stop offset="1" stop-color="#FF971C"/>
</linearGradient>
</defs>
</svg>
